HIERARCHY
ROOT Hips
{
	OFFSET 0.00000 0.00000 0.00000
	CHANNELS 6 Xposition Yposition Zposition Zrotation Yrotation Xrotation 
	JOINT LHipJoint
	{
		OFFSET 0 0 0
		CHANNELS 3 Zrotation Yrotation Xrotation
		JOINT LeftHip
		{
			OFFSET 1.36337 -1.57426 1.11036
			CHANNELS 3 Zrotation Yrotation Xrotation
			JOINT LeftKnee
			{
				OFFSET 2.38468 -6.55187 0.00000
				CHANNELS 3 Zrotation Yrotation Xrotation
				JOINT LeftAnkle
				{
					OFFSET 2.37166 -6.51609 0.00000
					CHANNELS 3 Zrotation Yrotation Xrotation
					JOINT LeftToe
					{
						OFFSET 0.29078 -0.79891 2.01393
						CHANNELS 3 Zrotation Yrotation Xrotation
						End Site
						{
							OFFSET 0.00000 -0.00000 1.07924
						}
					}
				}
			}
		}
	}
	JOINT RHipJoint
	{
		OFFSET 0 0 0
		CHANNELS 3 Zrotation Yrotation Xrotation
		JOINT RightHip
		{
			OFFSET -1.36349 -1.57426 1.11036
			CHANNELS 3 Zrotation Yrotation Xrotation
			JOINT RightKnee
			{
				OFFSET -2.29562 -6.30717 0.00000
				CHANNELS 3 Zrotation Yrotation Xrotation
				JOINT RightAnkle
				{
					OFFSET -2.40985 -6.62100 0.00000
					CHANNELS 3 Zrotation Yrotation Xrotation
					JOINT RightToe
					{
						OFFSET -0.23197 -0.63733 1.92232
						CHANNELS 3 Zrotation Yrotation Xrotation
						End Site
						{
							OFFSET -0.00000 -0.00000 1.01562
						}
					}
				}
			}
		}
	}
	JOINT lowerback
	{
		OFFSET 0 0 0
		CHANNELS 3 Zrotation Yrotation Xrotation
		JOINT Chest
		{
			OFFSET -0.08565 2.03602 -0.24562
			CHANNELS 3 Zrotation Yrotation Xrotation
			JOINT Chest2
			{
				OFFSET -0.00036 2.05693 0.00216
				CHANNELS 3 Zrotation Yrotation Xrotation
				JOINT lowerneck
				{
					OFFSET 0 0 0
					CHANNELS 3 Zrotation Yrotation Xrotation
					JOINT Neck
					{
						OFFSET -0.03664 1.69515 0.31789
						CHANNELS 3 Zrotation Yrotation Xrotation
						JOINT Head
						{
							OFFSET 0.00932 1.70181 -0.46013
							CHANNELS 3 Zrotation Yrotation Xrotation
							End Site
							{
								OFFSET 0.01243 1.77620 -0.19377
							}
						}
					}
				}
				JOINT LeftCollar
				{
					OFFSET 0 0 0
					CHANNELS 3 Zrotation Yrotation Xrotation
					JOINT LeftShoulder
					{
						OFFSET 3.74344 0.81315 -0.36647
CHANNELS 3 Zrotation Xrotation Yrotation
						JOINT LeftElbow
						{
OFFSET 0 -4.971850 -0.000000
CHANNELS 3 Zrotation Xrotation Yrotation
							JOINT LeftWrist
							{
OFFSET 0 -3.358110 0.000000
CHANNELS 3 Zrotation Xrotation Yrotation
								JOINT lhand
								{
									OFFSET 0 0 0
CHANNELS 3 Zrotation Xrotation Yrotation
									JOINT LFingers
									{
OFFSET 0 -0.622780 0.000000
CHANNELS 3 Zrotation Xrotation Yrotation
										End Site
										{
OFFSET 0 -0.502100 0.000000
										}
									}
								}
								JOINT LThumb
								{
OFFSET 0 0.000000 0.000000
CHANNELS 3 Zrotation Xrotation Yrotation
									End Site
									{
OFFSET 0 -0.509760 0.509760
									}
								}
							}
						}
					}
				}
				JOINT RightCollar
				{
					OFFSET 0 0 0
					CHANNELS 3 Zrotation Yrotation Xrotation
					JOINT RightShoulder
					{
						OFFSET -3.75385 0.50666 -0.06525
CHANNELS 3 Zrotation Xrotation Yrotation
						JOINT RightElbow
						{
OFFSET 0 -4.964930 -0.000000
CHANNELS 3 Zrotation Xrotation Yrotation
							JOINT RightWrist
							{
OFFSET 0 -3.349290 0.000000
CHANNELS 3 Zrotation Xrotation Yrotation
								JOINT rhand
								{
									OFFSET 0 0 0
CHANNELS 3 Zrotation Xrotation Yrotation
									JOINT RFingers
									{
OFFSET 0 -0.638040 0.000000
CHANNELS 3 Zrotation Xrotation Yrotation
										End Site
										{
OFFSET 0 -0.514410 0.000000
										}
									}
								}
								JOINT RThumb
								{
OFFSET 0 0.000000 0.000000
CHANNELS 3 Zrotation Xrotation Yrotation
									End Site
									{
OFFSET 0 -0.522260 0.522260
									}
								}
							}
						}
					}
				}
			}
		}
	}
}
MOTION
Frames: 12
Frame Time: 0.008333333333333333
-5.458683 16.819958 -4.500628 458.787245 -85.637657 260.156755 0.000000 0.000000 0.000000 -27.501541 -1.547392 -0.419094 1.386523 7.450167 21.056111 0.970775 1.612381 -19.260836 0.289893 3.462192 9.568311 0.000000 0.000000 0.000000 8.561718 -8.260141 -23.185649 -11.373690 -18.113082 63.989288 -0.191808 -2.614639 -9.663036 -0.209344 -2.945847 8.128128 -7.915905 -1.876720 -2.153584 -0.671402 -2.258983 1.083557 3.632932 -1.261259 2.614567 -1.585490 2.733810 -21.804380 1.825529 3.183165 35.237036 1.612312 1.047037 16.189955 0.000000 0.000000 0.000000 3.278920 -7.633768 -22.941570 9.799438 -16.425308 1.417765 22.461774 -1.212812 11.997611 0.000000 0.000000 0.000000 -7.125000 0.000000 0.000000 -3.298604 17.042563 -2.190330 0.000000 0.000000 0.000000 -2.077419 6.386342 4.110753 -11.628164 -19.244627 -1.978016 -9.949310 7.325015 30.242111 0.000000 0.000000 0.000000 7.125000 0.000000 0.000000 24.117347 58.938265 -8.526429
-6.094515 16.750199 -4.469847 438.397623 -85.684723 280.913275 0.000000 0.000000 0.000000 -27.533215 -1.193442 1.263283 1.493381 7.719827 21.866301 1.174239 -0.178697 -20.436181 0.150523 2.496680 6.880621 0.000000 0.000000 0.000000 10.226856 -7.846217 -26.946374 -9.375229 -17.042592 57.378158 -0.397954 -3.556210 -13.757953 -0.231240 -3.093929 8.540556 -7.824793 -2.598938 -1.959994 -0.461452 -3.257605 0.757193 3.761068 -1.736923 2.295724 -1.552347 2.774018 -21.445011 1.800492 3.247806 34.752462 1.591038 1.092977 15.864194 0.000000 0.000000 0.000000 4.614050 -9.383107 -27.367307 11.201899 -18.596899 1.839962 21.936289 -4.826445 9.474609 0.000000 0.000000 0.000000 -7.125000 0.000000 0.000000 -3.585769 19.790929 -2.164257 0.000000 0.000000 0.000000 -2.086020 8.202748 -1.228843 -10.973958 -18.248315 -1.767720 -9.827164 8.798340 30.496367 0.000000 0.000000 0.000000 7.125000 0.000000 0.000000 24.445617 59.140370 -8.771185
-6.779487 16.727175 -4.474014 431.311496 -84.743845 288.481127 0.000000 0.000000 0.000000 -28.139645 -0.054265 4.367540 1.192711 6.929729 19.507419 1.197286 -0.994464 -20.384108 0.053004 1.481729 4.075406 0.000000 0.000000 0.000000 10.792179 -5.997629 -28.612226 -6.598815 -14.982525 47.336548 -0.528637 -3.969946 -15.760427 -0.248452 -3.207109 8.855982 -8.552462 -2.961659 -2.628674 -0.548225 -3.651044 0.799493 4.014562 -1.963528 2.807768 -1.579483 2.668997 -21.757888 1.763552 3.155539 34.436899 1.564833 1.063713 15.786685 0.000000 0.000000 0.000000 5.771393 -11.518018 -29.947065 12.555186 -20.631966 2.294181 22.299045 -8.041221 9.074082 0.000000 0.000000 0.000000 -7.125000 0.000000 0.000000 -3.316454 20.194062 -1.971017 0.000000 0.000000 0.000000 -1.845815 9.598572 -4.626229 -10.648075 -17.746784 -1.667122 -10.486175 9.605156 31.207788 0.000000 0.000000 0.000000 7.125000 0.000000 0.000000 24.354532 59.931886 -9.201690
-7.487168 16.710555 -4.495982 433.679526 -83.994637 287.110798 0.000000 0.000000 0.000000 -28.594682 1.654080 8.213206 0.654016 5.170088 14.394967 1.044696 -0.805735 -19.069747 0.016041 0.812262 2.232446 0.000000 0.000000 0.000000 10.547631 -1.659337 -28.679121 -3.865332 -11.975080 35.649411 -0.659562 -5.295118 -18.171448 -0.418261 -4.150902 11.501752 -9.119362 -3.178086 -3.613038 -0.616051 -3.839194 0.324254 4.206686 -2.055857 2.925041 -1.344199 2.794299 -21.577817 1.279672 3.423679 34.440998 1.364516 1.131327 15.759803 0.000000 0.000000 0.000000 6.528027 -12.328988 -31.485047 13.799695 -22.447439 2.751294 23.441472 -11.448715 10.097656 0.000000 0.000000 0.000000 -7.125000 0.000000 0.000000 -2.532974 19.000887 -1.571773 0.000000 0.000000 0.000000 -1.672284 11.151019 -7.480002 -10.284319 -17.183045 -1.557880 -10.282661 10.981831 31.159622 0.000000 0.000000 0.000000 7.125000 0.000000 0.000000 24.524005 59.841232 -9.217039
-8.217248 16.661849 -4.504581 431.620142 -82.666327 290.170122 0.000000 0.000000 0.000000 -29.195437 3.915454 13.665899 0.135545 2.356028 6.491537 0.691473 0.362113 -15.842207 0.003013 0.351252 0.965220 0.000000 0.000000 0.000000 8.583289 2.645376 -28.588582 -2.043407 -8.953039 25.650530 -0.835010 -5.980032 -20.435037 -0.026444 -1.045753 2.874638 -9.557350 -3.527299 -4.820519 -0.845887 -4.159114 0.105194 4.116998 -2.234749 3.435232 -1.625617 2.773803 -22.183845 1.158637 3.585148 34.631214 1.409537 1.138281 15.988652 0.000000 0.000000 0.000000 6.933517 -12.801423 -32.713672 15.367695 -24.655381 3.378039 23.879080 -13.528684 10.056696 0.000000 0.000000 0.000000 -7.125000 0.000000 0.000000 -2.220783 19.008100 -1.377328 0.000000 0.000000 0.000000 -1.475822 11.844333 -9.993945 -10.022573 -16.774767 -1.481491 -10.085697 12.559601 31.286275 0.000000 0.000000 0.000000 7.125000 0.000000 0.000000 24.834735 59.909319 -9.383934
-8.965382 16.608159 -4.544087 426.561624 -82.198776 296.194452 0.000000 0.000000 0.000000 -28.189763 5.893459 18.396829 0.000000 0.000000 0.000000 0.367395 1.459860 -12.073876 0.011826 0.681247 1.872343 0.000000 0.000000 0.000000 6.143604 9.222737 -29.077057 -1.577184 -7.923381 22.481543 -1.461618 -6.318140 -25.884905 -0.033760 -1.176491 3.234620 -9.047352 -3.707314 -5.656230 -0.699623 -4.364980 -0.326121 3.931897 -2.316528 3.454280 -1.199760 2.765775 -22.341829 0.094312 3.831250 34.511913 0.928762 1.143450 16.010502 0.000000 0.000000 0.000000 6.556204 -12.302251 -33.617398 16.691665 -26.449317 3.949064 23.699364 -15.101545 10.453213 0.000000 0.000000 0.000000 -7.125000 0.000000 0.000000 -2.364740 18.593196 -1.488256 0.000000 0.000000 0.000000 -1.360169 13.000529 -10.782438 -10.129351 -16.941642 -1.512405 -9.796224 12.105758 30.928289 0.000000 0.000000 0.000000 7.125000 0.000000 0.000000 24.831315 59.521563 -9.150097
-9.679747 16.497542 -4.609390 422.367893 -80.661611 300.664803 0.000000 0.000000 0.000000 -28.024872 6.476226 20.525845 0.000000 0.000000 0.000000 0.281334 0.119917 -10.058985 0.001469 0.246083 0.676090 0.000000 0.000000 0.000000 4.753672 9.338315 -29.140345 -1.550474 -7.859192 22.287276 -1.455751 -5.761967 -25.514600 -0.041762 -1.308538 3.598310 -9.430896 -3.912673 -5.699642 -0.903745 -4.594277 -0.143740 3.893579 -2.451275 3.715782 -1.354569 2.625078 -22.963412 -0.136936 3.844714 34.002782 0.869814 1.123897 15.910850 0.000000 0.000000 0.000000 6.156440 -11.813114 -34.645687 17.759886 -27.848454 4.436585 23.861949 -16.219906 10.012003 0.000000 0.000000 0.000000 -7.125000 0.000000 0.000000 -2.231757 19.057054 -1.380273 0.000000 0.000000 0.000000 -0.995827 12.815825 -10.509791 -10.420204 -17.394207 -1.598291 -9.535955 11.046068 31.926264 0.000000 0.000000 0.000000 7.125000 0.000000 0.000000 25.956712 60.351580 -10.119055
-10.443288 16.405265 -4.682719 414.030659 -80.261723 308.339721 0.000000 0.000000 0.000000 -26.106325 6.908808 22.399584 0.028867 0.900940 2.477552 0.173846 -0.928103 -7.612111 0.003374 -0.374518 -1.029085 0.000000 0.000000 0.000000 6.703107 5.238107 -28.027813 -1.690234 -8.188539 23.288223 -0.601580 -5.868185 -17.938573 -0.009219 -0.609063 1.673603 -8.134256 -4.029426 -4.602161 -0.657589 -4.951099 -0.297602 3.482826 -2.574822 2.899395 -1.321915 2.667477 -22.956984 -0.690609 4.109508 34.105892 0.679420 1.148902 15.979345 0.000000 0.000000 0.000000 5.117732 -9.298480 -35.024398 18.315576 -28.559318 4.699123 24.440608 -17.217151 11.306829 0.000000 0.000000 0.000000 -7.125000 0.000000 0.000000 -1.883414 17.596820 -1.226355 0.000000 0.000000 0.000000 -1.024843 13.086706 -9.647709 -10.610051 -17.688126 -1.655517 -9.362394 10.432315 31.538363 0.000000 0.000000 0.000000 7.125000 0.000000 0.000000 25.793132 59.966581 -9.810352
-11.240387 16.383731 -4.785545 404.006167 -80.501579 317.188546 0.000000 0.000000 0.000000 -23.492874 6.186194 17.961654 0.934761 6.136155 17.186877 0.118458 -3.808484 -6.268015 0.000706 -0.158609 -0.435835 0.000000 0.000000 0.000000 9.056079 2.107463 -26.790284 -1.989232 -8.843630 25.307371 -0.055135 -6.618233 -10.700172 -0.076676 -1.738654 4.785039 -5.974336 -3.935975 -3.887910 -0.398981 -4.974133 0.056974 2.594915 -2.559333 2.708187 -1.462144 2.635672 -22.952798 -0.521556 4.048965 34.482719 0.765972 1.115729 16.154782 0.000000 0.000000 0.000000 3.910074 -7.322132 -34.389146 17.350322 -27.316789 4.247159 24.201374 -16.252945 11.774919 0.000000 0.000000 0.000000 -7.125000 0.000000 0.000000 -2.075047 17.111723 -1.373469 0.000000 0.000000 0.000000 -0.700981 12.159332 -9.377381 -10.672109 -17.783814 -1.674506 -9.002861 10.796167 31.164462 0.000000 0.000000 0.000000 7.125000 0.000000 0.000000 25.839987 59.551224 -9.570507
-12.014463 16.445924 -4.915558 395.589337 -81.829040 324.983269 0.000000 0.000000 0.000000 -19.497351 7.153391 11.012287 3.213909 11.020091 32.362435 -0.028641 -3.070394 1.013439 0.010653 -0.282411 -0.776239 0.000000 0.000000 0.000000 12.303663 1.192502 -24.077716 -2.121999 -9.115609 26.157702 -0.052885 -5.536408 -9.314366 -0.641848 -5.121554 14.256330 -4.273992 -3.506506 -4.250972 0.437637 -4.465034 0.537785 2.513127 -2.304405 3.298525 -1.086537 2.770645 -22.738237 -1.064236 4.271337 35.118320 0.506731 1.145688 16.453449 0.000000 0.000000 0.000000 1.872635 -5.824919 -31.841861 15.388174 -24.683226 3.386939 22.536995 -12.790224 11.775227 0.000000 0.000000 0.000000 -7.125000 0.000000 0.000000 -3.236436 17.274032 -2.132893 0.000000 0.000000 0.000000 -1.223055 9.614800 -9.955567 -10.318215 -17.235824 -1.567926 -8.459467 12.800240 31.099322 0.000000 0.000000 0.000000 7.125000 0.000000 0.000000 26.337699 59.369497 -9.654980
-12.682559 16.550141 -5.012453 390.174411 -81.491920 329.822721 0.000000 0.000000 0.000000 -17.972738 5.771690 3.435354 6.757701 15.114605 47.934340 0.088256 1.454690 5.300124 0.034437 -1.180905 -3.246898 0.000000 0.000000 0.000000 13.703319 -1.055593 -20.740012 -2.000831 -8.867206 25.381162 -0.129533 -4.555157 -9.983691 -0.851370 -5.884547 16.449821 -3.637995 -3.367191 -2.727886 0.653969 -4.380752 0.372284 2.491249 -2.234986 2.234265 -1.122702 2.864065 -22.269494 -0.778307 4.264480 35.800098 0.628464 1.149866 16.676032 0.000000 0.000000 0.000000 0.114621 -3.220220 -27.951799 14.250044 -23.090766 2.925659 19.828482 -7.869107 9.057271 0.000000 0.000000 0.000000 -7.125000 0.000000 0.000000 -5.089763 20.379675 -3.009856 0.000000 0.000000 0.000000 -1.842209 7.447065 -6.841935 -10.300279 -17.207875 -1.562625 -8.959526 12.512355 30.544432 0.000000 0.000000 0.000000 7.125000 0.000000 0.000000 25.368316 58.988594 -9.035735
-13.313005 16.634319 -5.064696 381.758873 -81.449540 337.836082 0.000000 0.000000 0.000000 -16.726424 4.712217 -3.902105 10.337312 17.591725 60.605293 -0.165258 7.504262 -0.501084 0.029620 -1.052007 -2.892468 0.000000 0.000000 0.000000 15.606962 -3.750182 -17.138469 -1.627276 -8.041477 22.840474 -0.178017 -3.721978 -10.238313 -0.710707 -5.386992 15.015896 -1.881338 -2.904974 -2.035272 0.702962 -3.836046 0.642170 1.624998 -1.942851 1.969904 -0.800882 2.852517 -22.287679 -0.762556 4.108697 36.081881 0.550503 1.128121 16.835462 0.000000 0.000000 0.000000 -0.541234 -1.808181 -25.939211 12.631035 -20.743585 2.321389 19.804548 -6.463103 12.240796 0.000000 0.000000 0.000000 -7.125000 0.000000 0.000000 -5.156689 17.027830 -3.434445 0.000000 0.000000 0.000000 -2.177325 4.451599 -3.609238 -10.535950 -17.573500 -1.633050 -9.349757 11.536050 30.327587 0.000000 0.000000 0.000000 7.125000 0.000000 0.000000 24.796355 58.881467 -8.751041
